<svg xmlns="http://www.w3.org/2000/svg" style="width:0; height:0; visibility:hidden;">
    <symbol id="i-fb" viewBox="0 0 49.652 49.652">
       <path d="M24.826 0C11.136 0 0 11.137 0 24.826c0 13.688 11.137 24.826 24.826 24.826 13.688 0 24.826-11.138 24.826-24.826C49.652 11.136 38.516 0 24.826 0zM31 25.7h-4.04v14.396h-5.984V25.7H18.13v-5.088h2.846v-3.29c0-2.358 1.12-6.04 6.04-6.04l4.435.016v4.94h-3.218c-.524 0-1.27.26-1.27 1.385v2.99h4.56L31 25.7z"/> 
    </symbol>
    <symbol id="i-in" viewBox="0 0 49.652 49.652">
       <g> <path d="M29.35 21.298c-2.125 0-3.074 1.168-3.605 1.988v-1.704h-4.002c.052 1.128 0 12.04 0 12.04h4.002v-6.726c0-.36.023-.72.13-.977.29-.72.95-1.466 2.055-1.466 1.448 0 2.027 1.104 2.027 2.724v6.442h4.002v-6.905c-.002-3.696-1.977-5.417-4.61-5.417zm-3.608 2.03h-.025c.008-.014.02-.027.025-.04v.04zM15.523 21.582h4.002v12.04h-4.002z"/> <path d="M24.826 0C11.136 0 0 11.137 0 24.826c0 13.688 11.137 24.826 24.826 24.826 13.688 0 24.826-11.138 24.826-24.826C49.652 11.136 38.516 0 24.826 0zM37.99 36.055c0 1.056-.875 1.91-1.958 1.91h-22.58c-1.08 0-1.958-.854-1.958-1.91V13.21c0-1.054.877-1.91 1.957-1.91h22.582c1.082 0 1.96.857 1.96 1.91v22.845z"/> <path d="M17.55 15.777c-1.367 0-2.263.898-2.263 2.08 0 1.155.87 2.08 2.21 2.08h.027c1.396 0 2.265-.925 2.265-2.08-.028-1.18-.87-2.08-2.24-2.08z"/> </g> 
    </symbol>
    <symbol id="i-tw" viewBox="0 0 49.652 49.652">
       <path d="M24.826 0C11.136 0 0 11.137 0 24.826c0 13.688 11.137 24.826 24.826 24.826 13.688 0 24.826-11.138 24.826-24.826C49.652 11.136 38.516 0 24.826 0zM35.9 19.144c.012.246.018.494.018.742 0 7.55-5.746 16.255-16.26 16.255-3.226 0-6.23-.942-8.758-2.564.447.053.902.08 1.363.08 2.678 0 5.14-.914 7.097-2.446a5.72 5.72 0 0 1-5.338-3.97 5.76 5.76 0 0 0 2.58-.095 5.715 5.715 0 0 1-4.583-5.603v-.072a5.69 5.69 0 0 0 2.587.714 5.71 5.71 0 0 1-2.54-4.755c0-1.05.28-2.03.772-2.875a16.225 16.225 0 0 0 11.776 5.972 5.707 5.707 0 0 1-.147-1.303 5.714 5.714 0 0 1 9.883-3.91 11.406 11.406 0 0 0 3.63-1.387 5.74 5.74 0 0 1-2.516 3.162 11.36 11.36 0 0 0 3.282-.9 11.494 11.494 0 0 1-2.85 2.954z"/> 
    </symbol>
    <symbol id="i-yt" viewBox="0 0 97.75 97.75">
       <g> <path d="M25.676 52.482h3.875v20.973h3.667V52.482h3.947v-3.435H25.676zM56.674 55.046c-1.212 0-2.343.662-3.406 1.972v-7.972h-3.295v24.41h3.295v-1.763c1.103 1.36 2.233 2.013 3.406 2.013 1.31 0 2.193-.69 2.633-2.044.22-.77.334-1.982.334-3.665v-7.242c0-1.722-.112-2.924-.333-3.655-.44-1.364-1.323-2.054-2.633-2.054zm-.33 13.21c0 1.643-.482 2.453-1.434 2.453-.54 0-1.092-.26-1.643-.812V58.814c.55-.545 1.102-.803 1.643-.803.95 0 1.434.843 1.434 2.483v7.762zM43.824 69.167c-.73 1.033-1.422 1.542-2.084 1.542-.44 0-.69-.26-.77-.772-.03-.106-.03-.508-.03-1.28v-13.39h-3.297v14.38c0 1.284.11 2.152.29 2.704.332.922 1.064 1.354 2.124 1.354 1.213 0 2.457-.732 3.767-2.234v1.984h3.298V55.268h-3.298v13.9zM46.653 38.466c1.073 0 1.588-.85 1.588-2.55v-7.732c0-1.7-.514-2.548-1.587-2.548-1.074 0-1.59.848-1.59 2.548v7.73c0 1.702.516 2.552 1.59 2.552z"/> <path d="M48.875 0C21.882 0 0 21.882 0 48.875S21.882 97.75 48.875 97.75 97.75 75.868 97.75 48.875 75.868 0 48.875 0zm5.436 22.86h3.322v13.532c0 .78 0 1.186.04 1.295.073.516.335.78.78.78.667 0 1.366-.516 2.105-1.56V22.86h3.33v18.38h-3.33v-2.005c-1.326 1.52-2.59 2.257-3.805 2.257-1.072 0-1.812-.435-2.146-1.365-.184-.557-.295-1.436-.295-2.733V22.86zm-12.577 5.993c0-1.965.334-3.4 1.042-4.33.92-1.257 2.218-1.885 3.878-1.885 1.668 0 2.964.628 3.885 1.885.698.928 1.032 2.365 1.032 4.33v6.436c0 1.953-.334 3.402-1.032 4.32-.92 1.255-2.217 1.882-3.885 1.882-1.66 0-2.957-.627-3.878-1.88-.708-.92-1.042-2.37-1.042-4.323v-6.437zm-8.906-12.277l2.622 9.685 2.518-9.684h3.735L37.26 31.25v9.99h-3.692v-9.99c-.335-1.77-1.074-4.362-2.26-7.802-.777-2.29-1.588-4.585-2.366-6.872h3.885zm42.36 58.485c-.67 2.9-3.04 5.04-5.895 5.36-6.763.754-13.604.758-20.42.754-6.813.004-13.658 0-20.42-.755-2.854-.32-5.226-2.46-5.892-5.36-.95-4.128-.95-8.637-.95-12.89s.01-8.76.96-12.89c.668-2.9 3.038-5.04 5.893-5.357 6.762-.755 13.606-.76 20.42-.755 6.814-.004 13.658 0 20.42.755 2.855.32 5.227 2.458 5.896 5.358.947 4.13.94 8.64.94 12.89s-.003 8.762-.954 12.89z"/> <path d="M67.17 55.046c-1.686 0-2.995.62-3.947 1.864-.7.92-1.018 2.342-1.018 4.285v6.37c0 1.934.357 3.366 1.06 4.277.95 1.242 2.263 1.863 3.987 1.863 1.72 0 3.072-.65 3.984-1.972.4-.584.66-1.245.77-1.975.03-.33.07-1.06.07-2.124v-.48h-3.36c0 1.32-.044 2.054-.073 2.233-.188.88-.662 1.32-1.473 1.32-1.132 0-1.686-.84-1.686-2.52V64.96h6.592v-3.767c0-1.943-.33-3.365-1.02-4.285-.92-1.242-2.232-1.862-3.886-1.862zm1.612 7.172h-3.296v-1.683c0-1.682.553-2.523 1.654-2.523 1.09 0 1.642.842 1.642 2.523v1.683z"/> </g> 
    </symbol></svg>